<?xml version="1.0" standalone="no"?><!DOCTYPE svg PUBLIC "-//W3C//DTD SVG 1.1//EN" "http://www.w3.org/Graphics/SVG/1.1/DTD/svg11.dtd"><svg t="1565976336529" class="icon" viewBox="0 0 1235 1024" version="1.1" xmlns="http://www.w3.org/2000/svg" p-id="6634" xmlns:xlink="http://www.w3.org/1999/xlink" width="241.2109375" height="200"><defs><style type="text/css"></style></defs><path d="M617.931034 220.689655c-172.137931 0-308.965517 136.827586-308.965517 308.965517S445.793103 838.62069 617.931034 838.62069 926.896552 701.793103 926.896552 529.655172 790.068966 220.689655 617.931034 220.689655z m0 551.724138c-132.413793 0-242.758621-110.344828-242.75862-242.758621S485.517241 286.896552 617.931034 286.896552 860.689655 397.241379 860.689655 529.655172 750.344828 772.413793 617.931034 772.413793zM971.034483 335.448276a70.62069 70.62069 0 1 0 141.241379 0 70.62069 70.62069 0 0 0-141.241379 0z m132.413793-203.034483H971.034483l-30.896552-92.689655C931.310345 17.655172 904.827586 0 882.758621 0H353.103448c-26.482759 0-48.551724 17.655172-57.37931 39.724138L264.827586 132.413793H132.413793C57.37931 132.413793 0 189.793103 0 264.827586v617.931035c0 75.034483 61.793103 132.413793 132.413793 132.413793h971.034483c75.034483 0 132.413793-57.37931 132.413793-132.413793V264.827586c0-75.034483-57.37931-132.413793-132.413793-132.413793zM1169.655172 882.758621c0 35.310345-30.896552 66.206897-66.206896 66.206896h-971.034483c-35.310345 0-66.206897-30.896552-66.206896-66.206896V264.827586c0-35.310345 30.896552-66.206897 66.206896-66.206896h180.965517l13.24138-44.137931 30.896551-88.275862h520.827587l30.896551 88.275862 13.24138 44.137931H1103.448276c35.310345 0 66.206897 30.896552 66.206896 66.206896v617.931035z" fill="#999999" p-id="6635"></path></svg>