<?xml version="1.0" standalone="no"?><!DOCTYPE svg PUBLIC "-//W3C//DTD SVG 1.1//EN" "http://www.w3.org/Graphics/SVG/1.1/DTD/svg11.dtd"><svg t="1565973789563" class="icon" viewBox="0 0 1024 1024" version="1.1" xmlns="http://www.w3.org/2000/svg" p-id="1228" xmlns:xlink="http://www.w3.org/1999/xlink" width="200" height="200"><defs><style type="text/css"></style></defs><path d="M512.502 354.767c-124.483 0-225.391 100.608-225.391 224.667 0 124.09 100.907 224.706 225.391 224.706 124.476 0 225.391-100.616 225.391-224.706 0-124.06-100.915-224.667-225.391-224.667z m-1.178 385.353c-88.46 0-160.164-71.496-160.164-159.686 0-88.158 71.706-159.654 160.164-159.654 88.452 0 160.166 71.496 160.166 159.654 0 88.19-71.714 159.686-160.166 159.686z m390.351-531.043H752.32l-55.418-119.34c-5.452-10.847-15.18-17.1-25.325-17.556a27.694 27.694 0 0 0-3.165-0.181H362.614c-6.136 0-11.846 2.024-16.635 5.496-4.785 2.992-8.937 7.485-11.86 13.3l-55.854 118.28h-85.954v-34.044c0-19.184-14.734-34.755-32.92-34.755-18.177 0-32.919 15.57-32.919 34.755v34.045h-4.152C54.763 209.077 0 266.876 0 338.177v485.729C0 895.2 54.763 953 122.32 953h779.355C969.238 953 1024 897.32 1024 826.024V338.179c0-71.303-54.762-129.102-122.325-129.102z m61.166 614.83c0 35.66-27.38 64.557-61.166 64.557H122.32c-33.778 0-61.166-28.896-61.166-64.557v-483.61c0-35.7 27.387-64.564 61.166-64.564h178.673v-0.16c9.552-1.023 18.546-7.17 23.704-17.435l55.647-117.86H651.06l54.717 117.86c5.261 10.462 14.5 16.656 24.256 17.495v0.1h171.64c33.784 0 61.166 28.865 61.166 64.564v483.61h0.001zM800.95 344.257c-17.724 0-32.085 15.142-32.085 33.839 0 18.69 14.361 33.867 32.085 33.867 17.716 0 32.083-15.176 32.083-33.867 0.001-18.697-14.366-33.84-32.083-33.84z" p-id="1229"></path></svg>